ISO-10303-21;
HEADER;
FILE_NAME('Open CASCADE Shape Model','2026-06-24T16:02:24',('Author'),(
    'Open CASCADE'),'Open CASCADE STEP processor 7.8','Open CASCADE 7.8'
  ,'Unknown');
FILE_DESCRIPTION(('Open CASCADE Model'),'2;1');
FILE_SCHEMA(('AUTOMOTIVE_DESIGN { 1 0 10303 214 1 1 1 1 }'));
ENDSEC;
DATA;
#1 = APPLICATION_PROTOCOL_DEFINITION('international standard',
  'automotive_design',2000,#2);
#2 = APPLICATION_CONTEXT(
  'core data for automotive mechanical design processes');
#3 = SHAPE_DEFINITION_REPRESENTATION(#4,#10);
#4 = PRODUCT_DEFINITION_SHAPE('','',#5);
#5 = PRODUCT_DEFINITION('design','',#6,#9);
#6 = PRODUCT_DEFINITION_FORMATION('','',#7);
#7 = PRODUCT('Open CASCADE STEP translator 7.8 1',
  'Open CASCADE STEP translator 7.8 1','',(#8));
#8 = PRODUCT_CONTEXT('',#2,'mechanical');
#9 = PRODUCT_DEFINITION_CONTEXT('part definition',#2,'design');
#10 = SHAPE_REPRESENTATION('',(#11,#15,#19,#23,#27),#31);
#11 = AXIS2_PLACEMENT_3D('',#12,#13,#14);
#12 = CARTESIAN_POINT('',(0.,0.,0.));
#13 = DIRECTION('',(0.,0.,1.));
#14 = DIRECTION('',(1.,0.,-0.));
#15 = AXIS2_PLACEMENT_3D('',#16,#17,#18);
#16 = CARTESIAN_POINT('',(0.,0.,0.));
#17 = DIRECTION('',(0.,0.,1.));
#18 = DIRECTION('',(1.,0.,-0.));
#19 = AXIS2_PLACEMENT_3D('',#20,#21,#22);
#20 = CARTESIAN_POINT('',(0.,0.,0.));
#21 = DIRECTION('',(0.,0.,1.));
#22 = DIRECTION('',(1.,0.,-0.));
#23 = AXIS2_PLACEMENT_3D('',#24,#25,#26);
#24 = CARTESIAN_POINT('',(0.,0.,0.));
#25 = DIRECTION('',(0.,0.,1.));
#26 = DIRECTION('',(1.,0.,-0.));
#27 = AXIS2_PLACEMENT_3D('',#28,#29,#30);
#28 = CARTESIAN_POINT('',(0.,0.,0.));
#29 = DIRECTION('',(0.,0.,1.));
#30 = DIRECTION('',(1.,0.,-0.));
#31 = ( GEOMETRIC_REPRESENTATION_CONTEXT(3) 
GLOBAL_UNCERTAINTY_ASSIGNED_CONTEXT((#35)) GLOBAL_UNIT_ASSIGNED_CONTEXT(
(#32,#33,#34)) REPRESENTATION_CONTEXT('Context #1',
  '3D Context with UNIT and UNCERTAINTY') );
#32 = ( LENGTH_UNIT() NAMED_UNIT(*) SI_UNIT(.MILLI.,.METRE.) );
#33 = ( NAMED_UNIT(*) PLANE_ANGLE_UNIT() SI_UNIT($,.RADIAN.) );
#34 = ( NAMED_UNIT(*) SI_UNIT($,.STERADIAN.) SOLID_ANGLE_UNIT() );
#35 = UNCERTAINTY_MEASURE_WITH_UNIT(LENGTH_MEASURE(1.E-07),#32,
  'distance_accuracy_value','confusion accuracy');
#36 = PRODUCT_RELATED_PRODUCT_CATEGORY('part',$,(#7));
#37 = SHAPE_DEFINITION_REPRESENTATION(#38,#44);
#38 = PRODUCT_DEFINITION_SHAPE('','',#39);
#39 = PRODUCT_DEFINITION('design','',#40,#43);
#40 = PRODUCT_DEFINITION_FORMATION('','',#41);
#41 = PRODUCT('Open CASCADE STEP translator 7.8 1.1',
  'Open CASCADE STEP translator 7.8 1.1','',(#42));
#42 = PRODUCT_CONTEXT('',#2,'mechanical');
#43 = PRODUCT_DEFINITION_CONTEXT('part definition',#2,'design');
#44 = MANIFOLD_SURFACE_SHAPE_REPRESENTATION('',(#11,#45),#302);
#45 = SHELL_BASED_SURFACE_MODEL('',(#46));
#46 = OPEN_SHELL('',(#47));
#47 = ADVANCED_FACE('',(#48),#61,.T.);
#48 = FACE_BOUND('',#49,.T.);
#49 = EDGE_LOOP('',(#50,#169,#286,#301));
#50 = ORIENTED_EDGE('',*,*,#51,.T.);
#51 = EDGE_CURVE('',#52,#52,#54,.T.);
#52 = VERTEX_POINT('',#53);
#53 = CARTESIAN_POINT('',(10.,0.,176.83442226876));
#54 = SURFACE_CURVE('',#55,(#60),.PCURVE_S1.);
#55 = CIRCLE('',#56,10.);
#56 = AXIS2_PLACEMENT_3D('',#57,#58,#59);
#57 = CARTESIAN_POINT('',(0.,0.,176.83442226876));
#58 = DIRECTION('',(0.,0.,1.));
#59 = DIRECTION('',(1.,0.,-0.));
#60 = PCURVE('',#61,#163);
#61 = SURFACE_OF_REVOLUTION('',#62,#160);
#62 = B_SPLINE_CURVE_WITH_KNOTS('',3,(#63,#64,#65,#66,#67,#68,#69,#70,
    #71,#72,#73,#74,#75,#76,#77,#78,#79,#80,#81,#82,#83,#84,#85,#86,#87,
    #88,#89,#90,#91,#92,#93,#94,#95,#96,#97,#98,#99,#100,#101,#102,#103,
    #104,#105,#106,#107,#108,#109,#110,#111,#112,#113,#114,#115,#116,
    #117,#118,#119,#120,#121,#122,#123,#124,#125,#126,#127,#128,#129,
    #130,#131,#132,#133,#134,#135,#136,#137,#138,#139,#140,#141,#142,
    #143,#144,#145,#146,#147,#148,#149,#150,#151,#152,#153,#154,#155,
    #156,#157,#158,#159),.UNSPECIFIED.,.F.,.F.,(4,1,1,1,1,1,1,1,1,1,1,1,
    1,1,1,1,1,1,1,1,1,1,1,1,1,1,1,1,1,1,1,1,1,1,1,1,1,1,1,1,1,1,1,1,1,1,
    1,1,1,1,1,1,1,1,1,1,1,1,1,1,1,1,1,1,1,1,1,1,1,1,1,1,1,1,1,1,1,1,1,1,
    1,1,1,1,1,1,1,1,1,1,1,1,1,1,4),(0.,1.,2.,3.,4.,5.,6.,7.,8.,9.,10.,
    11.,12.,13.,14.,15.,16.,17.,18.,19.,20.,21.,22.,23.,24.,25.,26.,27.,
    28.,29.,30.,31.,32.,33.,34.,35.,36.,37.,38.,39.,40.,41.,42.,43.,44.,
    45.,46.,47.,48.,49.,50.,51.,52.,53.,54.,55.,56.,57.,58.,59.,60.,61.,
    62.,63.,64.,65.,66.,67.,68.,69.,70.,71.,72.,73.,74.,75.,76.,77.,78.,
    79.,80.,81.,82.,83.,84.,85.,86.,87.,88.,89.,90.,91.,92.,93.,94.),
  .QUASI_UNIFORM_KNOTS.);
#63 = CARTESIAN_POINT('',(10.,0.,176.83442226876));
#64 = CARTESIAN_POINT('',(11.457239318095,0.,176.71970111542));
#65 = CARTESIAN_POINT('',(12.911805273514,0.,176.58941199202));
#66 = CARTESIAN_POINT('',(14.363358466667,0.,176.44358529943));
#67 = CARTESIAN_POINT('',(15.811560200943,0.,176.28225506397));
#68 = CARTESIAN_POINT('',(17.256072561741,0.,176.10545892946));
#69 = CARTESIAN_POINT('',(18.696558495313,0.,175.91323814842));
#70 = CARTESIAN_POINT('',(20.132681887417,0.,175.7056375725));
#71 = CARTESIAN_POINT('',(21.564107641738,0.,175.48270564196));
#72 = CARTESIAN_POINT('',(22.990501758078,0.,175.24449437436));
#73 = CARTESIAN_POINT('',(24.411531410294,0.,174.99105935249));
#74 = CARTESIAN_POINT('',(25.826865023952,0.,174.72245971134));
#75 = CARTESIAN_POINT('',(27.236172353698,0.,174.43875812432));
#76 = CARTESIAN_POINT('',(28.639124560314,0.,174.14002078862));
#77 = CARTESIAN_POINT('',(30.035394287449,0.,173.82631740981));
#78 = CARTESIAN_POINT('',(31.424655738,0.,173.49772118554));
#79 = CARTESIAN_POINT('',(32.806584750133,0.,173.15430878844));
#80 = CARTESIAN_POINT('',(34.18085887292,0.,172.79616034828));
#81 = CARTESIAN_POINT('',(35.547157441581,0.,172.42335943325));
#82 = CARTESIAN_POINT('',(36.905161652301,0.,172.03599303045));
#83 = CARTESIAN_POINT('',(38.254554636621,0.,171.6341515256));
#84 = CARTESIAN_POINT('',(39.595021535371,0.,171.21792868196));
#85 = CARTESIAN_POINT('',(40.926249572145,0.,170.78742161845));
#86 = CARTESIAN_POINT('',(42.247928126271,0.,170.34273078696));
#87 = CARTESIAN_POINT('',(43.559748805298,0.,169.88395994896));
#88 = CARTESIAN_POINT('',(44.861405516954,0.,169.41121615125));
#89 = CARTESIAN_POINT('',(46.152594540561,0.,168.924609701));
#90 = CARTESIAN_POINT('',(47.43301459791,0.,168.42425414));
#91 = CARTESIAN_POINT('',(48.702366923559,0.,167.91026621818));
#92 = CARTESIAN_POINT('',(49.960355334539,0.,167.38276586637));
#93 = CARTESIAN_POINT('',(51.206686299472,0.,166.84187616829));
#94 = CARTESIAN_POINT('',(52.441069007056,0.,166.28772333186));
#95 = CARTESIAN_POINT('',(53.663215433922,0.,165.72043665975));
#96 = CARTESIAN_POINT('',(54.872840411842,0.,165.14014851917));
#97 = CARTESIAN_POINT('',(56.069661694266,0.,164.54699431105));
#98 = CARTESIAN_POINT('',(57.253400022181,0.,163.94111243839));
#99 = CARTESIAN_POINT('',(58.423779189271,0.,163.32264427397));
#100 = CARTESIAN_POINT('',(59.580526106365,0.,162.69173412742));
#101 = CARTESIAN_POINT('',(60.72337086516,0.,162.04852921148));
#102 = CARTESIAN_POINT('',(61.852046801196,0.,161.39317960767));
#103 = CARTESIAN_POINT('',(62.966290556082,0.,160.72583823129));
#104 = CARTESIAN_POINT('',(64.065842138945,0.,160.04666079573));
#105 = CARTESIAN_POINT('',(65.150444987091,0.,159.35580577614));
#106 = CARTESIAN_POINT('',(66.219846025875,0.,158.65343437242));
#107 = CARTESIAN_POINT('',(67.273795727752,0.,157.93971047165));
#108 = CARTESIAN_POINT('',(68.312048170496,0.,157.21480060985));
#109 = CARTESIAN_POINT('',(69.334361094582,0.,156.47887393307));
#110 = CARTESIAN_POINT('',(70.340495959721,0.,155.73210215799));
#111 = CARTESIAN_POINT('',(71.330218000508,0.,154.97465953178));
#112 = CARTESIAN_POINT('',(72.303296281212,0.,154.20672279152));
#113 = CARTESIAN_POINT('',(73.259503749652,0.,153.42847112291));
#114 = CARTESIAN_POINT('',(74.198617290183,0.,152.64008611846));
#115 = CARTESIAN_POINT('',(75.120417775751,0.,151.84175173515));
#116 = CARTESIAN_POINT('',(76.024690119027,0.,151.03365425147));
#117 = CARTESIAN_POINT('',(76.911223322591,0.,150.21598222399));
#118 = CARTESIAN_POINT('',(77.779810528167,0.,149.38892644334));
#119 = CARTESIAN_POINT('',(78.630249064888,0.,148.55267988969));
#120 = CARTESIAN_POINT('',(79.462340496589,0.,147.70743768773));
#121 = CARTESIAN_POINT('',(80.275890668106,0.,146.85339706114));
#122 = CARTESIAN_POINT('',(81.070709750581,0.,145.9907572866));
#123 = CARTESIAN_POINT('',(81.846612285753,0.,145.11971964722));
#124 = CARTESIAN_POINT('',(82.603417229234,0.,144.24048738563));
#125 = CARTESIAN_POINT('',(83.340947992753,0.,143.35326565657));
#126 = CARTESIAN_POINT('',(84.059032485359,0.,142.45826147895));
#127 = CARTESIAN_POINT('',(84.757503153575,0.,141.55568368763));
#128 = CARTESIAN_POINT('',(85.436197020495,0.,140.64574288463));
#129 = CARTESIAN_POINT('',(86.094955723811,0.,139.72865139));
#130 = CARTESIAN_POINT('',(86.733625552767,0.,138.80462319231));
#131 = CARTESIAN_POINT('',(87.352057484022,0.,137.8738738987));
#132 = CARTESIAN_POINT('',(87.950107216423,0.,136.93662068455));
#133 = CARTESIAN_POINT('',(88.527635204676,0.,135.99308224284));
#134 = CARTESIAN_POINT('',(89.084506691904,0.,135.0434787331));
#135 = CARTESIAN_POINT('',(89.620591741097,0.,134.08803173005));
#136 = CARTESIAN_POINT('',(90.135765265422,0.,133.12696417189));
#137 = CARTESIAN_POINT('',(90.629907057417,0.,132.1605003083));
#138 = CARTESIAN_POINT('',(91.102901817035,0.,131.18886564808));
#139 = CARTESIAN_POINT('',(91.554639178551,0.,130.21228690657));
#140 = CARTESIAN_POINT('',(91.98501373631,0.,129.23099195273));
#141 = CARTESIAN_POINT('',(92.393925069325,0.,128.24520975596));
#142 = CARTESIAN_POINT('',(92.781277764709,0.,127.25517033269));
#143 = CARTESIAN_POINT('',(93.146981439935,0.,126.26110469273));
#144 = CARTESIAN_POINT('',(93.490950763927,0.,125.26324478529));
#145 = CARTESIAN_POINT('',(93.81310547697,0.,124.26182344498));
#146 = CARTESIAN_POINT('',(94.11337040944,0.,123.25707433735));
#147 = CARTESIAN_POINT('',(94.39167549934,0.,122.24923190446));
#148 = CARTESIAN_POINT('',(94.647955808649,0.,121.23853131016));
#149 = CARTESIAN_POINT('',(94.882151538477,0.,120.22520838518));
#150 = CARTESIAN_POINT('',(95.094208043012,0.,119.20949957215));
#151 = CARTESIAN_POINT('',(95.284075842277,0.,118.19164187039));
#152 = CARTESIAN_POINT('',(95.451710633674,0.,117.17187278063));
#153 = CARTESIAN_POINT('',(95.597073302316,0.,116.15043024962));
#154 = CARTESIAN_POINT('',(95.720129930161,0.,115.12755261455));
#155 = CARTESIAN_POINT('',(95.820851803923,0.,114.10347854748));
#156 = CARTESIAN_POINT('',(95.899215421771,0.,113.07844699963));
#157 = CARTESIAN_POINT('',(95.955202498813,0.,112.05269714564));
#158 = CARTESIAN_POINT('',(95.988799971367,0.,111.02646832776));
#159 = CARTESIAN_POINT('',(96.,0.,110.));
#160 = AXIS1_PLACEMENT('',#161,#162);
#161 = CARTESIAN_POINT('',(0.,0.,0.));
#162 = DIRECTION('',(0.,0.,1.));
#163 = DEFINITIONAL_REPRESENTATION('',(#164),#168);
#164 = LINE('',#165,#166);
#165 = CARTESIAN_POINT('',(0.,0.));
#166 = VECTOR('',#167,1.);
#167 = DIRECTION('',(1.,0.));
#168 = ( GEOMETRIC_REPRESENTATION_CONTEXT(2) 
PARAMETRIC_REPRESENTATION_CONTEXT() REPRESENTATION_CONTEXT('2D SPACE',''
  ) );
#169 = ORIENTED_EDGE('',*,*,#170,.T.);
#170 = EDGE_CURVE('',#52,#171,#173,.T.);
#171 = VERTEX_POINT('',#172);
#172 = CARTESIAN_POINT('',(96.,0.,110.));
#173 = SEAM_CURVE('',#174,(#272,#279),.PCURVE_S1.);
#174 = B_SPLINE_CURVE_WITH_KNOTS('',3,(#175,#176,#177,#178,#179,#180,
    #181,#182,#183,#184,#185,#186,#187,#188,#189,#190,#191,#192,#193,
    #194,#195,#196,#197,#198,#199,#200,#201,#202,#203,#204,#205,#206,
    #207,#208,#209,#210,#211,#212,#213,#214,#215,#216,#217,#218,#219,
    #220,#221,#222,#223,#224,#225,#226,#227,#228,#229,#230,#231,#232,
    #233,#234,#235,#236,#237,#238,#239,#240,#241,#242,#243,#244,#245,
    #246,#247,#248,#249,#250,#251,#252,#253,#254,#255,#256,#257,#258,
    #259,#260,#261,#262,#263,#264,#265,#266,#267,#268,#269,#270,#271),
  .UNSPECIFIED.,.F.,.F.,(4,1,1,1,1,1,1,1,1,1,1,1,1,1,1,1,1,1,1,1,1,1,1,1
    ,1,1,1,1,1,1,1,1,1,1,1,1,1,1,1,1,1,1,1,1,1,1,1,1,1,1,1,1,1,1,1,1,1,1
    ,1,1,1,1,1,1,1,1,1,1,1,1,1,1,1,1,1,1,1,1,1,1,1,1,1,1,1,1,1,1,1,1,1,1
    ,1,1,4),(0.,1.,2.,3.,4.,5.,6.,7.,8.,9.,10.,11.,12.,13.,14.,15.,16.,
    17.,18.,19.,20.,21.,22.,23.,24.,25.,26.,27.,28.,29.,30.,31.,32.,33.,
    34.,35.,36.,37.,38.,39.,40.,41.,42.,43.,44.,45.,46.,47.,48.,49.,50.,
    51.,52.,53.,54.,55.,56.,57.,58.,59.,60.,61.,62.,63.,64.,65.,66.,67.,
    68.,69.,70.,71.,72.,73.,74.,75.,76.,77.,78.,79.,80.,81.,82.,83.,84.,
    85.,86.,87.,88.,89.,90.,91.,92.,93.,94.),.QUASI_UNIFORM_KNOTS.);
#175 = CARTESIAN_POINT('',(10.,0.,176.83442226876));
#176 = CARTESIAN_POINT('',(11.457239318095,0.,176.71970111542));
#177 = CARTESIAN_POINT('',(12.911805273514,0.,176.58941199202));
#178 = CARTESIAN_POINT('',(14.363358466667,0.,176.44358529943));
#179 = CARTESIAN_POINT('',(15.811560200943,0.,176.28225506397));
#180 = CARTESIAN_POINT('',(17.256072561741,0.,176.10545892946));
#181 = CARTESIAN_POINT('',(18.696558495313,0.,175.91323814842));
#182 = CARTESIAN_POINT('',(20.132681887417,0.,175.7056375725));
#183 = CARTESIAN_POINT('',(21.564107641738,0.,175.48270564196));
#184 = CARTESIAN_POINT('',(22.990501758078,0.,175.24449437436));
#185 = CARTESIAN_POINT('',(24.411531410294,0.,174.99105935249));
#186 = CARTESIAN_POINT('',(25.826865023952,0.,174.72245971134));
#187 = CARTESIAN_POINT('',(27.236172353698,0.,174.43875812432));
#188 = CARTESIAN_POINT('',(28.639124560314,0.,174.14002078862));
#189 = CARTESIAN_POINT('',(30.035394287449,0.,173.82631740981));
#190 = CARTESIAN_POINT('',(31.424655738,0.,173.49772118554));
#191 = CARTESIAN_POINT('',(32.806584750133,0.,173.15430878844));
#192 = CARTESIAN_POINT('',(34.18085887292,0.,172.79616034828));
#193 = CARTESIAN_POINT('',(35.547157441581,0.,172.42335943325));
#194 = CARTESIAN_POINT('',(36.905161652301,0.,172.03599303045));
#195 = CARTESIAN_POINT('',(38.254554636621,0.,171.6341515256));
#196 = CARTESIAN_POINT('',(39.595021535371,0.,171.21792868196));
#197 = CARTESIAN_POINT('',(40.926249572145,0.,170.78742161845));
#198 = CARTESIAN_POINT('',(42.247928126271,0.,170.34273078696));
#199 = CARTESIAN_POINT('',(43.559748805298,0.,169.88395994896));
#200 = CARTESIAN_POINT('',(44.861405516954,0.,169.41121615125));
#201 = CARTESIAN_POINT('',(46.152594540561,0.,168.924609701));
#202 = CARTESIAN_POINT('',(47.43301459791,0.,168.42425414));
#203 = CARTESIAN_POINT('',(48.702366923559,0.,167.91026621818));
#204 = CARTESIAN_POINT('',(49.960355334539,0.,167.38276586637));
#205 = CARTESIAN_POINT('',(51.206686299472,0.,166.84187616829));
#206 = CARTESIAN_POINT('',(52.441069007056,0.,166.28772333186));
#207 = CARTESIAN_POINT('',(53.663215433922,0.,165.72043665975));
#208 = CARTESIAN_POINT('',(54.872840411842,0.,165.14014851917));
#209 = CARTESIAN_POINT('',(56.069661694266,0.,164.54699431105));
#210 = CARTESIAN_POINT('',(57.253400022181,0.,163.94111243839));
#211 = CARTESIAN_POINT('',(58.423779189271,0.,163.32264427397));
#212 = CARTESIAN_POINT('',(59.580526106365,0.,162.69173412742));
#213 = CARTESIAN_POINT('',(60.72337086516,0.,162.04852921148));
#214 = CARTESIAN_POINT('',(61.852046801196,0.,161.39317960767));
#215 = CARTESIAN_POINT('',(62.966290556082,0.,160.72583823129));
#216 = CARTESIAN_POINT('',(64.065842138945,0.,160.04666079573));
#217 = CARTESIAN_POINT('',(65.150444987091,0.,159.35580577614));
#218 = CARTESIAN_POINT('',(66.219846025875,0.,158.65343437242));
#219 = CARTESIAN_POINT('',(67.273795727752,0.,157.93971047165));
#220 = CARTESIAN_POINT('',(68.312048170496,0.,157.21480060985));
#221 = CARTESIAN_POINT('',(69.334361094582,0.,156.47887393307));
#222 = CARTESIAN_POINT('',(70.340495959721,0.,155.73210215799));
#223 = CARTESIAN_POINT('',(71.330218000508,0.,154.97465953178));
#224 = CARTESIAN_POINT('',(72.303296281212,0.,154.20672279152));
#225 = CARTESIAN_POINT('',(73.259503749652,0.,153.42847112291));
#226 = CARTESIAN_POINT('',(74.198617290183,0.,152.64008611846));
#227 = CARTESIAN_POINT('',(75.120417775751,0.,151.84175173515));
#228 = CARTESIAN_POINT('',(76.024690119027,0.,151.03365425147));
#229 = CARTESIAN_POINT('',(76.911223322591,0.,150.21598222399));
#230 = CARTESIAN_POINT('',(77.779810528167,0.,149.38892644334));
#231 = CARTESIAN_POINT('',(78.630249064888,0.,148.55267988969));
#232 = CARTESIAN_POINT('',(79.462340496589,0.,147.70743768773));
#233 = CARTESIAN_POINT('',(80.275890668106,0.,146.85339706114));
#234 = CARTESIAN_POINT('',(81.070709750581,0.,145.9907572866));
#235 = CARTESIAN_POINT('',(81.846612285753,0.,145.11971964722));
#236 = CARTESIAN_POINT('',(82.603417229234,0.,144.24048738563));
#237 = CARTESIAN_POINT('',(83.340947992753,0.,143.35326565657));
#238 = CARTESIAN_POINT('',(84.059032485359,0.,142.45826147895));
#239 = CARTESIAN_POINT('',(84.757503153575,0.,141.55568368763));
#240 = CARTESIAN_POINT('',(85.436197020495,0.,140.64574288463));
#241 = CARTESIAN_POINT('',(86.094955723811,0.,139.72865139));
#242 = CARTESIAN_POINT('',(86.733625552767,0.,138.80462319231));
#243 = CARTESIAN_POINT('',(87.352057484022,0.,137.8738738987));
#244 = CARTESIAN_POINT('',(87.950107216423,0.,136.93662068455));
#245 = CARTESIAN_POINT('',(88.527635204676,0.,135.99308224284));
#246 = CARTESIAN_POINT('',(89.084506691904,0.,135.0434787331));
#247 = CARTESIAN_POINT('',(89.620591741097,0.,134.08803173005));
#248 = CARTESIAN_POINT('',(90.135765265422,0.,133.12696417189));
#249 = CARTESIAN_POINT('',(90.629907057417,0.,132.1605003083));
#250 = CARTESIAN_POINT('',(91.102901817035,0.,131.18886564808));
#251 = CARTESIAN_POINT('',(91.554639178551,0.,130.21228690657));
#252 = CARTESIAN_POINT('',(91.98501373631,0.,129.23099195273));
#253 = CARTESIAN_POINT('',(92.393925069325,0.,128.24520975596));
#254 = CARTESIAN_POINT('',(92.781277764709,0.,127.25517033269));
#255 = CARTESIAN_POINT('',(93.146981439935,0.,126.26110469273));
#256 = CARTESIAN_POINT('',(93.490950763927,0.,125.26324478529));
#257 = CARTESIAN_POINT('',(93.81310547697,0.,124.26182344498));
#258 = CARTESIAN_POINT('',(94.11337040944,0.,123.25707433735));
#259 = CARTESIAN_POINT('',(94.39167549934,0.,122.24923190446));
#260 = CARTESIAN_POINT('',(94.647955808649,0.,121.23853131016));
#261 = CARTESIAN_POINT('',(94.882151538477,0.,120.22520838518));
#262 = CARTESIAN_POINT('',(95.094208043012,0.,119.20949957215));
#263 = CARTESIAN_POINT('',(95.284075842277,0.,118.19164187039));
#264 = CARTESIAN_POINT('',(95.451710633674,0.,117.17187278063));
#265 = CARTESIAN_POINT('',(95.597073302316,0.,116.15043024962));
#266 = CARTESIAN_POINT('',(95.720129930161,0.,115.12755261455));
#267 = CARTESIAN_POINT('',(95.820851803923,0.,114.10347854748));
#268 = CARTESIAN_POINT('',(95.899215421771,0.,113.07844699963));
#269 = CARTESIAN_POINT('',(95.955202498813,0.,112.05269714564));
#270 = CARTESIAN_POINT('',(95.988799971367,0.,111.02646832776));
#271 = CARTESIAN_POINT('',(96.,0.,110.));
#272 = PCURVE('',#61,#273);
#273 = DEFINITIONAL_REPRESENTATION('',(#274),#278);
#274 = LINE('',#275,#276);
#275 = CARTESIAN_POINT('',(0.,0.));
#276 = VECTOR('',#277,1.);
#277 = DIRECTION('',(0.,1.));
#278 = ( GEOMETRIC_REPRESENTATION_CONTEXT(2) 
PARAMETRIC_REPRESENTATION_CONTEXT() REPRESENTATION_CONTEXT('2D SPACE',''
  ) );
#279 = PCURVE('',#61,#280);
#280 = DEFINITIONAL_REPRESENTATION('',(#281),#285);
#281 = LINE('',#282,#283);
#282 = CARTESIAN_POINT('',(6.28318530718,0.));
#283 = VECTOR('',#284,1.);
#284 = DIRECTION('',(0.,1.));
#285 = ( GEOMETRIC_REPRESENTATION_CONTEXT(2) 
PARAMETRIC_REPRESENTATION_CONTEXT() REPRESENTATION_CONTEXT('2D SPACE',''
  ) );
#286 = ORIENTED_EDGE('',*,*,#287,.F.);
#287 = EDGE_CURVE('',#171,#171,#288,.T.);
#288 = SURFACE_CURVE('',#289,(#294),.PCURVE_S1.);
#289 = CIRCLE('',#290,96.);
#290 = AXIS2_PLACEMENT_3D('',#291,#292,#293);
#291 = CARTESIAN_POINT('',(0.,0.,110.));
#292 = DIRECTION('',(0.,0.,1.));
#293 = DIRECTION('',(1.,0.,-0.));
#294 = PCURVE('',#61,#295);
#295 = DEFINITIONAL_REPRESENTATION('',(#296),#300);
#296 = LINE('',#297,#298);
#297 = CARTESIAN_POINT('',(0.,94.));
#298 = VECTOR('',#299,1.);
#299 = DIRECTION('',(1.,0.));
#300 = ( GEOMETRIC_REPRESENTATION_CONTEXT(2) 
PARAMETRIC_REPRESENTATION_CONTEXT() REPRESENTATION_CONTEXT('2D SPACE',''
  ) );
#301 = ORIENTED_EDGE('',*,*,#170,.F.);
#302 = ( GEOMETRIC_REPRESENTATION_CONTEXT(3) 
GLOBAL_UNCERTAINTY_ASSIGNED_CONTEXT((#306)) GLOBAL_UNIT_ASSIGNED_CONTEXT
((#303,#304,#305)) REPRESENTATION_CONTEXT('Context #1',
  '3D Context with UNIT and UNCERTAINTY') );
#303 = ( LENGTH_UNIT() NAMED_UNIT(*) SI_UNIT(.MILLI.,.METRE.) );
#304 = ( NAMED_UNIT(*) PLANE_ANGLE_UNIT() SI_UNIT($,.RADIAN.) );
#305 = ( NAMED_UNIT(*) SI_UNIT($,.STERADIAN.) SOLID_ANGLE_UNIT() );
#306 = UNCERTAINTY_MEASURE_WITH_UNIT(LENGTH_MEASURE(1.E-07),#303,
  'distance_accuracy_value','confusion accuracy');
#307 = CONTEXT_DEPENDENT_SHAPE_REPRESENTATION(#308,#310);
#308 = ( REPRESENTATION_RELATIONSHIP('','',#44,#10) 
REPRESENTATION_RELATIONSHIP_WITH_TRANSFORMATION(#309) 
SHAPE_REPRESENTATION_RELATIONSHIP() );
#309 = ITEM_DEFINED_TRANSFORMATION('','',#11,#15);
#310 = PRODUCT_DEFINITION_SHAPE('Placement','Placement of an item',#311
  );
#311 = NEXT_ASSEMBLY_USAGE_OCCURRENCE('1','','',#5,#39,$);
#312 = PRODUCT_RELATED_PRODUCT_CATEGORY('part',$,(#41));
#313 = SHAPE_DEFINITION_REPRESENTATION(#314,#320);
#314 = PRODUCT_DEFINITION_SHAPE('','',#315);
#315 = PRODUCT_DEFINITION('design','',#316,#319);
#316 = PRODUCT_DEFINITION_FORMATION('','',#317);
#317 = PRODUCT('Open CASCADE STEP translator 7.8 1.2',
  'Open CASCADE STEP translator 7.8 1.2','',(#318));
#318 = PRODUCT_CONTEXT('',#2,'mechanical');
#319 = PRODUCT_DEFINITION_CONTEXT('part definition',#2,'design');
#320 = MANIFOLD_SURFACE_SHAPE_REPRESENTATION('',(#11,#321),#387);
#321 = SHELL_BASED_SURFACE_MODEL('',(#322));
#322 = OPEN_SHELL('',(#323));
#323 = ADVANCED_FACE('',(#324),#337,.T.);
#324 = FACE_BOUND('',#325,.F.);
#325 = EDGE_LOOP('',(#326,#348,#371,#386));
#326 = ORIENTED_EDGE('',*,*,#327,.T.);
#327 = EDGE_CURVE('',#328,#328,#330,.T.);
#328 = VERTEX_POINT('',#329);
#329 = CARTESIAN_POINT('',(96.,0.,110.));
#330 = SURFACE_CURVE('',#331,(#336),.PCURVE_S1.);
#331 = CIRCLE('',#332,96.);
#332 = AXIS2_PLACEMENT_3D('',#333,#334,#335);
#333 = CARTESIAN_POINT('',(0.,0.,110.));
#334 = DIRECTION('',(0.,0.,1.));
#335 = DIRECTION('',(1.,0.,-0.));
#336 = PCURVE('',#337,#342);
#337 = CYLINDRICAL_SURFACE('',#338,96.);
#338 = AXIS2_PLACEMENT_3D('',#339,#340,#341);
#339 = CARTESIAN_POINT('',(0.,0.,110.));
#340 = DIRECTION('',(-0.,-0.,-1.));
#341 = DIRECTION('',(1.,0.,0.));
#342 = DEFINITIONAL_REPRESENTATION('',(#343),#347);
#343 = LINE('',#344,#345);
#344 = CARTESIAN_POINT('',(-0.,0.));
#345 = VECTOR('',#346,1.);
#346 = DIRECTION('',(-1.,0.));
#347 = ( GEOMETRIC_REPRESENTATION_CONTEXT(2) 
PARAMETRIC_REPRESENTATION_CONTEXT() REPRESENTATION_CONTEXT('2D SPACE',''
  ) );
#348 = ORIENTED_EDGE('',*,*,#349,.T.);
#349 = EDGE_CURVE('',#328,#350,#352,.T.);
#350 = VERTEX_POINT('',#351);
#351 = CARTESIAN_POINT('',(96.,0.,-110.));
#352 = SEAM_CURVE('',#353,(#357,#364),.PCURVE_S1.);
#353 = LINE('',#354,#355);
#354 = CARTESIAN_POINT('',(96.,0.,110.));
#355 = VECTOR('',#356,1.);
#356 = DIRECTION('',(0.,0.,-1.));
#357 = PCURVE('',#337,#358);
#358 = DEFINITIONAL_REPRESENTATION('',(#359),#363);
#359 = LINE('',#360,#361);
#360 = CARTESIAN_POINT('',(-0.,0.));
#361 = VECTOR('',#362,1.);
#362 = DIRECTION('',(-0.,1.));
#363 = ( GEOMETRIC_REPRESENTATION_CONTEXT(2) 
PARAMETRIC_REPRESENTATION_CONTEXT() REPRESENTATION_CONTEXT('2D SPACE',''
  ) );
#364 = PCURVE('',#337,#365);
#365 = DEFINITIONAL_REPRESENTATION('',(#366),#370);
#366 = LINE('',#367,#368);
#367 = CARTESIAN_POINT('',(-6.28318530718,0.));
#368 = VECTOR('',#369,1.);
#369 = DIRECTION('',(-0.,1.));
#370 = ( GEOMETRIC_REPRESENTATION_CONTEXT(2) 
PARAMETRIC_REPRESENTATION_CONTEXT() REPRESENTATION_CONTEXT('2D SPACE',''
  ) );
#371 = ORIENTED_EDGE('',*,*,#372,.F.);
#372 = EDGE_CURVE('',#350,#350,#373,.T.);
#373 = SURFACE_CURVE('',#374,(#379),.PCURVE_S1.);
#374 = CIRCLE('',#375,96.);
#375 = AXIS2_PLACEMENT_3D('',#376,#377,#378);
#376 = CARTESIAN_POINT('',(0.,0.,-110.));
#377 = DIRECTION('',(0.,0.,1.));
#378 = DIRECTION('',(1.,0.,-0.));
#379 = PCURVE('',#337,#380);
#380 = DEFINITIONAL_REPRESENTATION('',(#381),#385);
#381 = LINE('',#382,#383);
#382 = CARTESIAN_POINT('',(-0.,220.));
#383 = VECTOR('',#384,1.);
#384 = DIRECTION('',(-1.,0.));
#385 = ( GEOMETRIC_REPRESENTATION_CONTEXT(2) 
PARAMETRIC_REPRESENTATION_CONTEXT() REPRESENTATION_CONTEXT('2D SPACE',''
  ) );
#386 = ORIENTED_EDGE('',*,*,#349,.F.);
#387 = ( GEOMETRIC_REPRESENTATION_CONTEXT(3) 
GLOBAL_UNCERTAINTY_ASSIGNED_CONTEXT((#391)) GLOBAL_UNIT_ASSIGNED_CONTEXT
((#388,#389,#390)) REPRESENTATION_CONTEXT('Context #1',
  '3D Context with UNIT and UNCERTAINTY') );
#388 = ( LENGTH_UNIT() NAMED_UNIT(*) SI_UNIT(.MILLI.,.METRE.) );
#389 = ( NAMED_UNIT(*) PLANE_ANGLE_UNIT() SI_UNIT($,.RADIAN.) );
#390 = ( NAMED_UNIT(*) SI_UNIT($,.STERADIAN.) SOLID_ANGLE_UNIT() );
#391 = UNCERTAINTY_MEASURE_WITH_UNIT(LENGTH_MEASURE(1.E-07),#388,
  'distance_accuracy_value','confusion accuracy');
#392 = CONTEXT_DEPENDENT_SHAPE_REPRESENTATION(#393,#395);
#393 = ( REPRESENTATION_RELATIONSHIP('','',#320,#10) 
REPRESENTATION_RELATIONSHIP_WITH_TRANSFORMATION(#394) 
SHAPE_REPRESENTATION_RELATIONSHIP() );
#394 = ITEM_DEFINED_TRANSFORMATION('','',#11,#19);
#395 = PRODUCT_DEFINITION_SHAPE('Placement','Placement of an item',#396
  );
#396 = NEXT_ASSEMBLY_USAGE_OCCURRENCE('2','','',#5,#315,$);
#397 = PRODUCT_RELATED_PRODUCT_CATEGORY('part',$,(#317));
#398 = SHAPE_DEFINITION_REPRESENTATION(#399,#405);
#399 = PRODUCT_DEFINITION_SHAPE('','',#400);
#400 = PRODUCT_DEFINITION('design','',#401,#404);
#401 = PRODUCT_DEFINITION_FORMATION('','',#402);
#402 = PRODUCT('Open CASCADE STEP translator 7.8 1.3',
  'Open CASCADE STEP translator 7.8 1.3','',(#403));
#403 = PRODUCT_CONTEXT('',#2,'mechanical');
#404 = PRODUCT_DEFINITION_CONTEXT('part definition',#2,'design');
#405 = MANIFOLD_SURFACE_SHAPE_REPRESENTATION('',(#11,#406),#663);
#406 = SHELL_BASED_SURFACE_MODEL('',(#407));
#407 = OPEN_SHELL('',(#408));
#408 = ADVANCED_FACE('',(#409),#422,.T.);
#409 = FACE_BOUND('',#410,.T.);
#410 = EDGE_LOOP('',(#411,#530,#647,#662));
#411 = ORIENTED_EDGE('',*,*,#412,.T.);
#412 = EDGE_CURVE('',#413,#413,#415,.T.);
#413 = VERTEX_POINT('',#414);
#414 = CARTESIAN_POINT('',(96.,0.,-110.));
#415 = SURFACE_CURVE('',#416,(#421),.PCURVE_S1.);
#416 = CIRCLE('',#417,96.);
#417 = AXIS2_PLACEMENT_3D('',#418,#419,#420);
#418 = CARTESIAN_POINT('',(0.,0.,-110.));
#419 = DIRECTION('',(0.,0.,1.));
#420 = DIRECTION('',(1.,0.,-0.));
#421 = PCURVE('',#422,#524);
#422 = SURFACE_OF_REVOLUTION('',#423,#521);
#423 = B_SPLINE_CURVE_WITH_KNOTS('',3,(#424,#425,#426,#427,#428,#429,
    #430,#431,#432,#433,#434,#435,#436,#437,#438,#439,#440,#441,#442,
    #443,#444,#445,#446,#447,#448,#449,#450,#451,#452,#453,#454,#455,
    #456,#457,#458,#459,#460,#461,#462,#463,#464,#465,#466,#467,#468,
    #469,#470,#471,#472,#473,#474,#475,#476,#477,#478,#479,#480,#481,
    #482,#483,#484,#485,#486,#487,#488,#489,#490,#491,#492,#493,#494,
    #495,#496,#497,#498,#499,#500,#501,#502,#503,#504,#505,#506,#507,
    #508,#509,#510,#511,#512,#513,#514,#515,#516,#517,#518,#519,#520),
  .UNSPECIFIED.,.F.,.F.,(4,1,1,1,1,1,1,1,1,1,1,1,1,1,1,1,1,1,1,1,1,1,1,1
    ,1,1,1,1,1,1,1,1,1,1,1,1,1,1,1,1,1,1,1,1,1,1,1,1,1,1,1,1,1,1,1,1,1,1
    ,1,1,1,1,1,1,1,1,1,1,1,1,1,1,1,1,1,1,1,1,1,1,1,1,1,1,1,1,1,1,1,1,1,1
    ,1,1,4),(0.,1.,2.,3.,4.,5.,6.,7.,8.,9.,10.,11.,12.,13.,14.,15.,16.,
    17.,18.,19.,20.,21.,22.,23.,24.,25.,26.,27.,28.,29.,30.,31.,32.,33.,
    34.,35.,36.,37.,38.,39.,40.,41.,42.,43.,44.,45.,46.,47.,48.,49.,50.,
    51.,52.,53.,54.,55.,56.,57.,58.,59.,60.,61.,62.,63.,64.,65.,66.,67.,
    68.,69.,70.,71.,72.,73.,74.,75.,76.,77.,78.,79.,80.,81.,82.,83.,84.,
    85.,86.,87.,88.,89.,90.,91.,92.,93.,94.),.QUASI_UNIFORM_KNOTS.);
#424 = CARTESIAN_POINT('',(96.,0.,-110.));
#425 = CARTESIAN_POINT('',(95.988799971367,0.,-111.0264683277));
#426 = CARTESIAN_POINT('',(95.955202498813,0.,-112.0526971456));
#427 = CARTESIAN_POINT('',(95.899215421771,0.,-113.0784469996));
#428 = CARTESIAN_POINT('',(95.820851803923,0.,-114.1034785474));
#429 = CARTESIAN_POINT('',(95.720129930161,0.,-115.1275526145));
#430 = CARTESIAN_POINT('',(95.597073302316,0.,-116.1504302496));
#431 = CARTESIAN_POINT('',(95.451710633674,0.,-117.1718727806));
#432 = CARTESIAN_POINT('',(95.284075842277,0.,-118.1916418703));
#433 = CARTESIAN_POINT('',(95.094208043012,0.,-119.2094995721));
#434 = CARTESIAN_POINT('',(94.882151538477,0.,-120.2252083851));
#435 = CARTESIAN_POINT('',(94.647955808649,0.,-121.2385313101));
#436 = CARTESIAN_POINT('',(94.39167549934,0.,-122.2492319044));
#437 = CARTESIAN_POINT('',(94.11337040944,0.,-123.2570743373));
#438 = CARTESIAN_POINT('',(93.81310547697,0.,-124.2618234449));
#439 = CARTESIAN_POINT('',(93.490950763927,0.,-125.2632447852));
#440 = CARTESIAN_POINT('',(93.146981439935,0.,-126.2611046927));
#441 = CARTESIAN_POINT('',(92.781277764709,0.,-127.2551703326));
#442 = CARTESIAN_POINT('',(92.393925069325,0.,-128.2452097559));
#443 = CARTESIAN_POINT('',(91.98501373631,0.,-129.2309919527));
#444 = CARTESIAN_POINT('',(91.554639178551,0.,-130.2122869065));
#445 = CARTESIAN_POINT('',(91.102901817035,0.,-131.188865648));
#446 = CARTESIAN_POINT('',(90.629907057417,0.,-132.1605003083));
#447 = CARTESIAN_POINT('',(90.135765265422,0.,-133.1269641718));
#448 = CARTESIAN_POINT('',(89.620591741097,0.,-134.08803173));
#449 = CARTESIAN_POINT('',(89.084506691904,0.,-135.0434787331));
#450 = CARTESIAN_POINT('',(88.527635204676,0.,-135.9930822428));
#451 = CARTESIAN_POINT('',(87.950107216423,0.,-136.9366206845));
#452 = CARTESIAN_POINT('',(87.352057484022,0.,-137.8738738987));
#453 = CARTESIAN_POINT('',(86.733625552767,0.,-138.8046231923));
#454 = CARTESIAN_POINT('',(86.094955723811,0.,-139.72865139));
#455 = CARTESIAN_POINT('',(85.436197020495,0.,-140.6457428846));
#456 = CARTESIAN_POINT('',(84.757503153575,0.,-141.5556836876));
#457 = CARTESIAN_POINT('',(84.059032485359,0.,-142.4582614789));
#458 = CARTESIAN_POINT('',(83.340947992753,0.,-143.3532656565));
#459 = CARTESIAN_POINT('',(82.603417229234,0.,-144.2404873856));
#460 = CARTESIAN_POINT('',(81.846612285753,0.,-145.1197196472));
#461 = CARTESIAN_POINT('',(81.070709750581,0.,-145.9907572866));
#462 = CARTESIAN_POINT('',(80.275890668106,0.,-146.8533970611));
#463 = CARTESIAN_POINT('',(79.462340496589,0.,-147.7074376877));
#464 = CARTESIAN_POINT('',(78.630249064888,0.,-148.5526798896));
#465 = CARTESIAN_POINT('',(77.779810528167,0.,-149.3889264433));
#466 = CARTESIAN_POINT('',(76.911223322591,0.,-150.2159822239));
#467 = CARTESIAN_POINT('',(76.024690119027,0.,-151.0336542514));
#468 = CARTESIAN_POINT('',(75.120417775751,0.,-151.8417517351));
#469 = CARTESIAN_POINT('',(74.198617290183,0.,-152.6400861184));
#470 = CARTESIAN_POINT('',(73.259503749652,0.,-153.4284711229));
#471 = CARTESIAN_POINT('',(72.303296281212,0.,-154.2067227915));
#472 = CARTESIAN_POINT('',(71.330218000508,0.,-154.9746595317));
#473 = CARTESIAN_POINT('',(70.340495959721,0.,-155.7321021579));
#474 = CARTESIAN_POINT('',(69.334361094582,0.,-156.478873933));
#475 = CARTESIAN_POINT('',(68.312048170496,0.,-157.2148006098));
#476 = CARTESIAN_POINT('',(67.273795727752,0.,-157.9397104716));
#477 = CARTESIAN_POINT('',(66.219846025875,0.,-158.6534343724));
#478 = CARTESIAN_POINT('',(65.150444987091,0.,-159.3558057761));
#479 = CARTESIAN_POINT('',(64.065842138945,0.,-160.0466607957));
#480 = CARTESIAN_POINT('',(62.966290556082,0.,-160.7258382312));
#481 = CARTESIAN_POINT('',(61.852046801196,0.,-161.3931796076));
#482 = CARTESIAN_POINT('',(60.72337086516,0.,-162.0485292114));
#483 = CARTESIAN_POINT('',(59.580526106365,0.,-162.6917341274));
#484 = CARTESIAN_POINT('',(58.423779189271,0.,-163.3226442739));
#485 = CARTESIAN_POINT('',(57.253400022181,0.,-163.9411124383));
#486 = CARTESIAN_POINT('',(56.069661694266,0.,-164.546994311));
#487 = CARTESIAN_POINT('',(54.872840411842,0.,-165.1401485191));
#488 = CARTESIAN_POINT('',(53.663215433922,0.,-165.7204366597));
#489 = CARTESIAN_POINT('',(52.441069007056,0.,-166.2877233318));
#490 = CARTESIAN_POINT('',(51.206686299472,0.,-166.8418761682));
#491 = CARTESIAN_POINT('',(49.960355334539,0.,-167.3827658663));
#492 = CARTESIAN_POINT('',(48.702366923559,0.,-167.9102662181));
#493 = CARTESIAN_POINT('',(47.43301459791,0.,-168.42425414));
#494 = CARTESIAN_POINT('',(46.152594540561,0.,-168.924609701));
#495 = CARTESIAN_POINT('',(44.861405516954,0.,-169.4112161512));
#496 = CARTESIAN_POINT('',(43.559748805298,0.,-169.8839599489));
#497 = CARTESIAN_POINT('',(42.247928126271,0.,-170.3427307869));
#498 = CARTESIAN_POINT('',(40.926249572145,0.,-170.7874216184));
#499 = CARTESIAN_POINT('',(39.595021535371,0.,-171.2179286819));
#500 = CARTESIAN_POINT('',(38.254554636621,0.,-171.6341515256));
#501 = CARTESIAN_POINT('',(36.905161652301,0.,-172.0359930304));
#502 = CARTESIAN_POINT('',(35.547157441581,0.,-172.4233594332));
#503 = CARTESIAN_POINT('',(34.18085887292,0.,-172.7961603482));
#504 = CARTESIAN_POINT('',(32.806584750133,0.,-173.1543087884));
#505 = CARTESIAN_POINT('',(31.424655738,0.,-173.4977211855));
#506 = CARTESIAN_POINT('',(30.035394287449,0.,-173.8263174098));
#507 = CARTESIAN_POINT('',(28.639124560314,0.,-174.1400207886));
#508 = CARTESIAN_POINT('',(27.236172353698,0.,-174.4387581243));
#509 = CARTESIAN_POINT('',(25.826865023952,0.,-174.7224597113));
#510 = CARTESIAN_POINT('',(24.411531410294,0.,-174.9910593524));
#511 = CARTESIAN_POINT('',(22.990501758078,0.,-175.2444943743));
#512 = CARTESIAN_POINT('',(21.564107641738,0.,-175.4827056419));
#513 = CARTESIAN_POINT('',(20.132681887417,0.,-175.7056375725));
#514 = CARTESIAN_POINT('',(18.696558495313,0.,-175.9132381484));
#515 = CARTESIAN_POINT('',(17.256072561741,0.,-176.1054589294));
#516 = CARTESIAN_POINT('',(15.811560200943,0.,-176.2822550639));
#517 = CARTESIAN_POINT('',(14.363358466667,0.,-176.4435852994));
#518 = CARTESIAN_POINT('',(12.911805273514,0.,-176.589411992));
#519 = CARTESIAN_POINT('',(11.457239318095,0.,-176.7197011154));
#520 = CARTESIAN_POINT('',(10.,0.,-176.8344222687));
#521 = AXIS1_PLACEMENT('',#522,#523);
#522 = CARTESIAN_POINT('',(0.,0.,0.));
#523 = DIRECTION('',(0.,0.,1.));
#524 = DEFINITIONAL_REPRESENTATION('',(#525),#529);
#525 = LINE('',#526,#527);
#526 = CARTESIAN_POINT('',(0.,0.));
#527 = VECTOR('',#528,1.);
#528 = DIRECTION('',(1.,0.));
#529 = ( GEOMETRIC_REPRESENTATION_CONTEXT(2) 
PARAMETRIC_REPRESENTATION_CONTEXT() REPRESENTATION_CONTEXT('2D SPACE',''
  ) );
#530 = ORIENTED_EDGE('',*,*,#531,.T.);
#531 = EDGE_CURVE('',#413,#532,#534,.T.);
#532 = VERTEX_POINT('',#533);
#533 = CARTESIAN_POINT('',(10.,0.,-176.8344222687));
#534 = SEAM_CURVE('',#535,(#633,#640),.PCURVE_S1.);
#535 = B_SPLINE_CURVE_WITH_KNOTS('',3,(#536,#537,#538,#539,#540,#541,
    #542,#543,#544,#545,#546,#547,#548,#549,#550,#551,#552,#553,#554,
    #555,#556,#557,#558,#559,#560,#561,#562,#563,#564,#565,#566,#567,
    #568,#569,#570,#571,#572,#573,#574,#575,#576,#577,#578,#579,#580,
    #581,#582,#583,#584,#585,#586,#587,#588,#589,#590,#591,#592,#593,
    #594,#595,#596,#597,#598,#599,#600,#601,#602,#603,#604,#605,#606,
    #607,#608,#609,#610,#611,#612,#613,#614,#615,#616,#617,#618,#619,
    #620,#621,#622,#623,#624,#625,#626,#627,#628,#629,#630,#631,#632),
  .UNSPECIFIED.,.F.,.F.,(4,1,1,1,1,1,1,1,1,1,1,1,1,1,1,1,1,1,1,1,1,1,1,1
    ,1,1,1,1,1,1,1,1,1,1,1,1,1,1,1,1,1,1,1,1,1,1,1,1,1,1,1,1,1,1,1,1,1,1
    ,1,1,1,1,1,1,1,1,1,1,1,1,1,1,1,1,1,1,1,1,1,1,1,1,1,1,1,1,1,1,1,1,1,1
    ,1,1,4),(0.,1.,2.,3.,4.,5.,6.,7.,8.,9.,10.,11.,12.,13.,14.,15.,16.,
    17.,18.,19.,20.,21.,22.,23.,24.,25.,26.,27.,28.,29.,30.,31.,32.,33.,
    34.,35.,36.,37.,38.,39.,40.,41.,42.,43.,44.,45.,46.,47.,48.,49.,50.,
    51.,52.,53.,54.,55.,56.,57.,58.,59.,60.,61.,62.,63.,64.,65.,66.,67.,
    68.,69.,70.,71.,72.,73.,74.,75.,76.,77.,78.,79.,80.,81.,82.,83.,84.,
    85.,86.,87.,88.,89.,90.,91.,92.,93.,94.),.QUASI_UNIFORM_KNOTS.);
#536 = CARTESIAN_POINT('',(96.,0.,-110.));
#537 = CARTESIAN_POINT('',(95.988799971367,0.,-111.0264683277));
#538 = CARTESIAN_POINT('',(95.955202498813,0.,-112.0526971456));
#539 = CARTESIAN_POINT('',(95.899215421771,0.,-113.0784469996));
#540 = CARTESIAN_POINT('',(95.820851803923,0.,-114.1034785474));
#541 = CARTESIAN_POINT('',(95.720129930161,0.,-115.1275526145));
#542 = CARTESIAN_POINT('',(95.597073302316,0.,-116.1504302496));
#543 = CARTESIAN_POINT('',(95.451710633674,0.,-117.1718727806));
#544 = CARTESIAN_POINT('',(95.284075842277,0.,-118.1916418703));
#545 = CARTESIAN_POINT('',(95.094208043012,0.,-119.2094995721));
#546 = CARTESIAN_POINT('',(94.882151538477,0.,-120.2252083851));
#547 = CARTESIAN_POINT('',(94.647955808649,0.,-121.2385313101));
#548 = CARTESIAN_POINT('',(94.39167549934,0.,-122.2492319044));
#549 = CARTESIAN_POINT('',(94.11337040944,0.,-123.2570743373));
#550 = CARTESIAN_POINT('',(93.81310547697,0.,-124.2618234449));
#551 = CARTESIAN_POINT('',(93.490950763927,0.,-125.2632447852));
#552 = CARTESIAN_POINT('',(93.146981439935,0.,-126.2611046927));
#553 = CARTESIAN_POINT('',(92.781277764709,0.,-127.2551703326));
#554 = CARTESIAN_POINT('',(92.393925069325,0.,-128.2452097559));
#555 = CARTESIAN_POINT('',(91.98501373631,0.,-129.2309919527));
#556 = CARTESIAN_POINT('',(91.554639178551,0.,-130.2122869065));
#557 = CARTESIAN_POINT('',(91.102901817035,0.,-131.188865648));
#558 = CARTESIAN_POINT('',(90.629907057417,0.,-132.1605003083));
#559 = CARTESIAN_POINT('',(90.135765265422,0.,-133.1269641718));
#560 = CARTESIAN_POINT('',(89.620591741097,0.,-134.08803173));
#561 = CARTESIAN_POINT('',(89.084506691904,0.,-135.0434787331));
#562 = CARTESIAN_POINT('',(88.527635204676,0.,-135.9930822428));
#563 = CARTESIAN_POINT('',(87.950107216423,0.,-136.9366206845));
#564 = CARTESIAN_POINT('',(87.352057484022,0.,-137.8738738987));
#565 = CARTESIAN_POINT('',(86.733625552767,0.,-138.8046231923));
#566 = CARTESIAN_POINT('',(86.094955723811,0.,-139.72865139));
#567 = CARTESIAN_POINT('',(85.436197020495,0.,-140.6457428846));
#568 = CARTESIAN_POINT('',(84.757503153575,0.,-141.5556836876));
#569 = CARTESIAN_POINT('',(84.059032485359,0.,-142.4582614789));
#570 = CARTESIAN_POINT('',(83.340947992753,0.,-143.3532656565));
#571 = CARTESIAN_POINT('',(82.603417229234,0.,-144.2404873856));
#572 = CARTESIAN_POINT('',(81.846612285753,0.,-145.1197196472));
#573 = CARTESIAN_POINT('',(81.070709750581,0.,-145.9907572866));
#574 = CARTESIAN_POINT('',(80.275890668106,0.,-146.8533970611));
#575 = CARTESIAN_POINT('',(79.462340496589,0.,-147.7074376877));
#576 = CARTESIAN_POINT('',(78.630249064888,0.,-148.5526798896));
#577 = CARTESIAN_POINT('',(77.779810528167,0.,-149.3889264433));
#578 = CARTESIAN_POINT('',(76.911223322591,0.,-150.2159822239));
#579 = CARTESIAN_POINT('',(76.024690119027,0.,-151.0336542514));
#580 = CARTESIAN_POINT('',(75.120417775751,0.,-151.8417517351));
#581 = CARTESIAN_POINT('',(74.198617290183,0.,-152.6400861184));
#582 = CARTESIAN_POINT('',(73.259503749652,0.,-153.4284711229));
#583 = CARTESIAN_POINT('',(72.303296281212,0.,-154.2067227915));
#584 = CARTESIAN_POINT('',(71.330218000508,0.,-154.9746595317));
#585 = CARTESIAN_POINT('',(70.340495959721,0.,-155.7321021579));
#586 = CARTESIAN_POINT('',(69.334361094582,0.,-156.478873933));
#587 = CARTESIAN_POINT('',(68.312048170496,0.,-157.2148006098));
#588 = CARTESIAN_POINT('',(67.273795727752,0.,-157.9397104716));
#589 = CARTESIAN_POINT('',(66.219846025875,0.,-158.6534343724));
#590 = CARTESIAN_POINT('',(65.150444987091,0.,-159.3558057761));
#591 = CARTESIAN_POINT('',(64.065842138945,0.,-160.0466607957));
#592 = CARTESIAN_POINT('',(62.966290556082,0.,-160.7258382312));
#593 = CARTESIAN_POINT('',(61.852046801196,0.,-161.3931796076));
#594 = CARTESIAN_POINT('',(60.72337086516,0.,-162.0485292114));
#595 = CARTESIAN_POINT('',(59.580526106365,0.,-162.6917341274));
#596 = CARTESIAN_POINT('',(58.423779189271,0.,-163.3226442739));
#597 = CARTESIAN_POINT('',(57.253400022181,0.,-163.9411124383));
#598 = CARTESIAN_POINT('',(56.069661694266,0.,-164.546994311));
#599 = CARTESIAN_POINT('',(54.872840411842,0.,-165.1401485191));
#600 = CARTESIAN_POINT('',(53.663215433922,0.,-165.7204366597));
#601 = CARTESIAN_POINT('',(52.441069007056,0.,-166.2877233318));
#602 = CARTESIAN_POINT('',(51.206686299472,0.,-166.8418761682));
#603 = CARTESIAN_POINT('',(49.960355334539,0.,-167.3827658663));
#604 = CARTESIAN_POINT('',(48.702366923559,0.,-167.9102662181));
#605 = CARTESIAN_POINT('',(47.43301459791,0.,-168.42425414));
#606 = CARTESIAN_POINT('',(46.152594540561,0.,-168.924609701));
#607 = CARTESIAN_POINT('',(44.861405516954,0.,-169.4112161512));
#608 = CARTESIAN_POINT('',(43.559748805298,0.,-169.8839599489));
#609 = CARTESIAN_POINT('',(42.247928126271,0.,-170.3427307869));
#610 = CARTESIAN_POINT('',(40.926249572145,0.,-170.7874216184));
#611 = CARTESIAN_POINT('',(39.595021535371,0.,-171.2179286819));
#612 = CARTESIAN_POINT('',(38.254554636621,0.,-171.6341515256));
#613 = CARTESIAN_POINT('',(36.905161652301,0.,-172.0359930304));
#614 = CARTESIAN_POINT('',(35.547157441581,0.,-172.4233594332));
#615 = CARTESIAN_POINT('',(34.18085887292,0.,-172.7961603482));
#616 = CARTESIAN_POINT('',(32.806584750133,0.,-173.1543087884));
#617 = CARTESIAN_POINT('',(31.424655738,0.,-173.4977211855));
#618 = CARTESIAN_POINT('',(30.035394287449,0.,-173.8263174098));
#619 = CARTESIAN_POINT('',(28.639124560314,0.,-174.1400207886));
#620 = CARTESIAN_POINT('',(27.236172353698,0.,-174.4387581243));
#621 = CARTESIAN_POINT('',(25.826865023952,0.,-174.7224597113));
#622 = CARTESIAN_POINT('',(24.411531410294,0.,-174.9910593524));
#623 = CARTESIAN_POINT('',(22.990501758078,0.,-175.2444943743));
#624 = CARTESIAN_POINT('',(21.564107641738,0.,-175.4827056419));
#625 = CARTESIAN_POINT('',(20.132681887417,0.,-175.7056375725));
#626 = CARTESIAN_POINT('',(18.696558495313,0.,-175.9132381484));
#627 = CARTESIAN_POINT('',(17.256072561741,0.,-176.1054589294));
#628 = CARTESIAN_POINT('',(15.811560200943,0.,-176.2822550639));
#629 = CARTESIAN_POINT('',(14.363358466667,0.,-176.4435852994));
#630 = CARTESIAN_POINT('',(12.911805273514,0.,-176.589411992));
#631 = CARTESIAN_POINT('',(11.457239318095,0.,-176.7197011154));
#632 = CARTESIAN_POINT('',(10.,0.,-176.8344222687));
#633 = PCURVE('',#422,#634);
#634 = DEFINITIONAL_REPRESENTATION('',(#635),#639);
#635 = LINE('',#636,#637);
#636 = CARTESIAN_POINT('',(0.,0.));
#637 = VECTOR('',#638,1.);
#638 = DIRECTION('',(0.,1.));
#639 = ( GEOMETRIC_REPRESENTATION_CONTEXT(2) 
PARAMETRIC_REPRESENTATION_CONTEXT() REPRESENTATION_CONTEXT('2D SPACE',''
  ) );
#640 = PCURVE('',#422,#641);
#641 = DEFINITIONAL_REPRESENTATION('',(#642),#646);
#642 = LINE('',#643,#644);
#643 = CARTESIAN_POINT('',(6.28318530718,0.));
#644 = VECTOR('',#645,1.);
#645 = DIRECTION('',(0.,1.));
#646 = ( GEOMETRIC_REPRESENTATION_CONTEXT(2) 
PARAMETRIC_REPRESENTATION_CONTEXT() REPRESENTATION_CONTEXT('2D SPACE',''
  ) );
#647 = ORIENTED_EDGE('',*,*,#648,.F.);
#648 = EDGE_CURVE('',#532,#532,#649,.T.);
#649 = SURFACE_CURVE('',#650,(#655),.PCURVE_S1.);
#650 = CIRCLE('',#651,10.);
#651 = AXIS2_PLACEMENT_3D('',#652,#653,#654);
#652 = CARTESIAN_POINT('',(0.,0.,-176.8344222687));
#653 = DIRECTION('',(0.,0.,1.));
#654 = DIRECTION('',(1.,0.,-0.));
#655 = PCURVE('',#422,#656);
#656 = DEFINITIONAL_REPRESENTATION('',(#657),#661);
#657 = LINE('',#658,#659);
#658 = CARTESIAN_POINT('',(0.,94.));
#659 = VECTOR('',#660,1.);
#660 = DIRECTION('',(1.,0.));
#661 = ( GEOMETRIC_REPRESENTATION_CONTEXT(2) 
PARAMETRIC_REPRESENTATION_CONTEXT() REPRESENTATION_CONTEXT('2D SPACE',''
  ) );
#662 = ORIENTED_EDGE('',*,*,#531,.F.);
#663 = ( GEOMETRIC_REPRESENTATION_CONTEXT(3) 
GLOBAL_UNCERTAINTY_ASSIGNED_CONTEXT((#667)) GLOBAL_UNIT_ASSIGNED_CONTEXT
((#664,#665,#666)) REPRESENTATION_CONTEXT('Context #1',
  '3D Context with UNIT and UNCERTAINTY') );
#664 = ( LENGTH_UNIT() NAMED_UNIT(*) SI_UNIT(.MILLI.,.METRE.) );
#665 = ( NAMED_UNIT(*) PLANE_ANGLE_UNIT() SI_UNIT($,.RADIAN.) );
#666 = ( NAMED_UNIT(*) SI_UNIT($,.STERADIAN.) SOLID_ANGLE_UNIT() );
#667 = UNCERTAINTY_MEASURE_WITH_UNIT(LENGTH_MEASURE(1.E-07),#664,
  'distance_accuracy_value','confusion accuracy');
#668 = CONTEXT_DEPENDENT_SHAPE_REPRESENTATION(#669,#671);
#669 = ( REPRESENTATION_RELATIONSHIP('','',#405,#10) 
REPRESENTATION_RELATIONSHIP_WITH_TRANSFORMATION(#670) 
SHAPE_REPRESENTATION_RELATIONSHIP() );
#670 = ITEM_DEFINED_TRANSFORMATION('','',#11,#23);
#671 = PRODUCT_DEFINITION_SHAPE('Placement','Placement of an item',#672
  );
#672 = NEXT_ASSEMBLY_USAGE_OCCURRENCE('3','','',#5,#400,$);
#673 = PRODUCT_RELATED_PRODUCT_CATEGORY('part',$,(#402));
#674 = SHAPE_DEFINITION_REPRESENTATION(#675,#681);
#675 = PRODUCT_DEFINITION_SHAPE('','',#676);
#676 = PRODUCT_DEFINITION('design','',#677,#680);
#677 = PRODUCT_DEFINITION_FORMATION('','',#678);
#678 = PRODUCT('Open CASCADE STEP translator 7.8 1.4',
  'Open CASCADE STEP translator 7.8 1.4','',(#679));
#679 = PRODUCT_CONTEXT('',#2,'mechanical');
#680 = PRODUCT_DEFINITION_CONTEXT('part definition',#2,'design');
#681 = GEOMETRICALLY_BOUNDED_WIREFRAME_SHAPE_REPRESENTATION('',(#11,#682
    ),#873);
#682 = GEOMETRIC_CURVE_SET('',(#683,#684,#685,#686,#687,#688,#689,#690,
    #691,#692,#693,#694,#695,#696,#697,#698,#699,#700,#701,#702,#703,
    #704,#705,#706,#707,#708,#709,#710,#711,#712,#713,#714,#715,#716,
    #717,#718,#719,#720,#721,#722,#723,#724,#725,#726,#727,#728,#729,
    #730,#731,#732,#733,#734,#735,#736,#737,#738,#739,#740,#741,#742,
    #743,#744,#745,#746,#747,#748,#749,#750,#751,#752,#753,#754,#755,
    #756,#757,#758,#759,#760,#761,#762,#763,#764,#765,#766,#767,#768,
    #769,#770,#771,#772,#773,#774,#775,#776,#777,#778,#779,#780,#781,
    #782,#783,#784,#785,#786,#787,#788,#789,#790,#791,#792,#793,#794,
    #795,#796,#797,#798,#799,#800,#801,#802,#803,#804,#805,#806,#807,
    #808,#809,#810,#811,#812,#813,#814,#815,#816,#817,#818,#819,#820,
    #821,#822,#823,#824,#825,#826,#827,#828,#829,#830,#831,#832,#833,
    #834,#835,#836,#837,#838,#839,#840,#841,#842,#843,#844,#845,#846,
    #847,#848,#849,#850,#851,#852,#853,#854,#855,#856,#857,#858,#859,
    #860,#861,#862,#863,#864,#865,#866,#867,#868,#869,#870,#871,#872));
#683 = CARTESIAN_POINT('',(11.457239318095,0.,176.71970111542));
#684 = CARTESIAN_POINT('',(12.911805273514,0.,176.58941199202));
#685 = CARTESIAN_POINT('',(14.363358466667,0.,176.44358529943));
#686 = CARTESIAN_POINT('',(15.811560200943,0.,176.28225506397));
#687 = CARTESIAN_POINT('',(17.256072561741,0.,176.10545892946));
#688 = CARTESIAN_POINT('',(18.696558495313,0.,175.91323814842));
#689 = CARTESIAN_POINT('',(20.132681887417,0.,175.7056375725));
#690 = CARTESIAN_POINT('',(21.564107641738,0.,175.48270564196));
#691 = CARTESIAN_POINT('',(22.990501758078,0.,175.24449437436));
#692 = CARTESIAN_POINT('',(24.411531410294,0.,174.99105935249));
#693 = CARTESIAN_POINT('',(25.826865023952,0.,174.72245971134));
#694 = CARTESIAN_POINT('',(27.236172353698,0.,174.43875812432));
#695 = CARTESIAN_POINT('',(28.639124560314,0.,174.14002078862));
#696 = CARTESIAN_POINT('',(30.035394287449,0.,173.82631740981));
#697 = CARTESIAN_POINT('',(31.424655738,0.,173.49772118554));
#698 = CARTESIAN_POINT('',(32.806584750133,0.,173.15430878844));
#699 = CARTESIAN_POINT('',(34.18085887292,0.,172.79616034828));
#700 = CARTESIAN_POINT('',(35.547157441581,0.,172.42335943325));
#701 = CARTESIAN_POINT('',(36.905161652301,0.,172.03599303045));
#702 = CARTESIAN_POINT('',(38.254554636621,0.,171.6341515256));
#703 = CARTESIAN_POINT('',(39.595021535371,0.,171.21792868196));
#704 = CARTESIAN_POINT('',(40.926249572145,0.,170.78742161845));
#705 = CARTESIAN_POINT('',(42.247928126271,0.,170.34273078696));
#706 = CARTESIAN_POINT('',(43.559748805298,0.,169.88395994896));
#707 = CARTESIAN_POINT('',(44.861405516954,0.,169.41121615125));
#708 = CARTESIAN_POINT('',(46.152594540561,0.,168.924609701));
#709 = CARTESIAN_POINT('',(47.43301459791,0.,168.42425414));
#710 = CARTESIAN_POINT('',(48.702366923559,0.,167.91026621818));
#711 = CARTESIAN_POINT('',(49.960355334539,0.,167.38276586637));
#712 = CARTESIAN_POINT('',(51.206686299472,0.,166.84187616829));
#713 = CARTESIAN_POINT('',(52.441069007056,0.,166.28772333186));
#714 = CARTESIAN_POINT('',(53.663215433922,0.,165.72043665975));
#715 = CARTESIAN_POINT('',(54.872840411842,0.,165.14014851917));
#716 = CARTESIAN_POINT('',(56.069661694266,0.,164.54699431105));
#717 = CARTESIAN_POINT('',(57.253400022181,0.,163.94111243839));
#718 = CARTESIAN_POINT('',(58.423779189271,0.,163.32264427397));
#719 = CARTESIAN_POINT('',(59.580526106365,0.,162.69173412742));
#720 = CARTESIAN_POINT('',(60.72337086516,0.,162.04852921148));
#721 = CARTESIAN_POINT('',(61.852046801196,0.,161.39317960767));
#722 = CARTESIAN_POINT('',(62.966290556082,0.,160.72583823129));
#723 = CARTESIAN_POINT('',(64.065842138945,0.,160.04666079573));
#724 = CARTESIAN_POINT('',(65.150444987091,0.,159.35580577614));
#725 = CARTESIAN_POINT('',(66.219846025875,0.,158.65343437242));
#726 = CARTESIAN_POINT('',(67.273795727752,0.,157.93971047165));
#727 = CARTESIAN_POINT('',(68.312048170496,0.,157.21480060985));
#728 = CARTESIAN_POINT('',(69.334361094582,0.,156.47887393307));
#729 = CARTESIAN_POINT('',(70.340495959721,0.,155.73210215799));
#730 = CARTESIAN_POINT('',(71.330218000508,0.,154.97465953178));
#731 = CARTESIAN_POINT('',(72.303296281212,0.,154.20672279152));
#732 = CARTESIAN_POINT('',(73.259503749652,0.,153.42847112291));
#733 = CARTESIAN_POINT('',(74.198617290183,0.,152.64008611846));
#734 = CARTESIAN_POINT('',(75.120417775751,0.,151.84175173515));
#735 = CARTESIAN_POINT('',(76.024690119027,0.,151.03365425147));
#736 = CARTESIAN_POINT('',(76.911223322591,0.,150.21598222399));
#737 = CARTESIAN_POINT('',(77.779810528167,0.,149.38892644334));
#738 = CARTESIAN_POINT('',(78.630249064888,0.,148.55267988969));
#739 = CARTESIAN_POINT('',(79.462340496589,0.,147.70743768773));
#740 = CARTESIAN_POINT('',(80.275890668106,0.,146.85339706114));
#741 = CARTESIAN_POINT('',(81.070709750581,0.,145.9907572866));
#742 = CARTESIAN_POINT('',(81.846612285753,0.,145.11971964722));
#743 = CARTESIAN_POINT('',(82.603417229234,0.,144.24048738563));
#744 = CARTESIAN_POINT('',(83.340947992753,0.,143.35326565657));
#745 = CARTESIAN_POINT('',(84.059032485359,0.,142.45826147895));
#746 = CARTESIAN_POINT('',(84.757503153575,0.,141.55568368763));
#747 = CARTESIAN_POINT('',(85.436197020495,0.,140.64574288463));
#748 = CARTESIAN_POINT('',(86.094955723811,0.,139.72865139));
#749 = CARTESIAN_POINT('',(86.733625552767,0.,138.80462319231));
#750 = CARTESIAN_POINT('',(87.352057484022,0.,137.8738738987));
#751 = CARTESIAN_POINT('',(87.950107216423,0.,136.93662068455));
#752 = CARTESIAN_POINT('',(88.527635204676,0.,135.99308224284));
#753 = CARTESIAN_POINT('',(89.084506691904,0.,135.0434787331));
#754 = CARTESIAN_POINT('',(89.620591741097,0.,134.08803173005));
#755 = CARTESIAN_POINT('',(90.135765265422,0.,133.12696417189));
#756 = CARTESIAN_POINT('',(90.629907057417,0.,132.1605003083));
#757 = CARTESIAN_POINT('',(91.102901817035,0.,131.18886564808));
#758 = CARTESIAN_POINT('',(91.554639178551,0.,130.21228690657));
#759 = CARTESIAN_POINT('',(91.98501373631,0.,129.23099195273));
#760 = CARTESIAN_POINT('',(92.393925069325,0.,128.24520975596));
#761 = CARTESIAN_POINT('',(92.781277764709,0.,127.25517033269));
#762 = CARTESIAN_POINT('',(93.146981439935,0.,126.26110469273));
#763 = CARTESIAN_POINT('',(93.490950763927,0.,125.26324478529));
#764 = CARTESIAN_POINT('',(93.81310547697,0.,124.26182344498));
#765 = CARTESIAN_POINT('',(94.11337040944,0.,123.25707433735));
#766 = CARTESIAN_POINT('',(94.39167549934,0.,122.24923190446));
#767 = CARTESIAN_POINT('',(94.647955808649,0.,121.23853131016));
#768 = CARTESIAN_POINT('',(94.882151538477,0.,120.22520838518));
#769 = CARTESIAN_POINT('',(95.094208043012,0.,119.20949957215));
#770 = CARTESIAN_POINT('',(95.284075842277,0.,118.19164187039));
#771 = CARTESIAN_POINT('',(95.451710633674,0.,117.17187278063));
#772 = CARTESIAN_POINT('',(95.597073302316,0.,116.15043024962));
#773 = CARTESIAN_POINT('',(95.720129930161,0.,115.12755261455));
#774 = CARTESIAN_POINT('',(95.820851803923,0.,114.10347854748));
#775 = CARTESIAN_POINT('',(95.899215421771,0.,113.07844699963));
#776 = CARTESIAN_POINT('',(95.955202498813,0.,112.05269714564));
#777 = CARTESIAN_POINT('',(95.988799971367,0.,111.02646832776));
#778 = CARTESIAN_POINT('',(95.988799971367,0.,-111.0264683277));
#779 = CARTESIAN_POINT('',(95.955202498813,0.,-112.0526971456));
#780 = CARTESIAN_POINT('',(95.899215421771,0.,-113.0784469996));
#781 = CARTESIAN_POINT('',(95.820851803923,0.,-114.1034785474));
#782 = CARTESIAN_POINT('',(95.720129930161,0.,-115.1275526145));
#783 = CARTESIAN_POINT('',(95.597073302316,0.,-116.1504302496));
#784 = CARTESIAN_POINT('',(95.451710633674,0.,-117.1718727806));
#785 = CARTESIAN_POINT('',(95.284075842277,0.,-118.1916418703));
#786 = CARTESIAN_POINT('',(95.094208043012,0.,-119.2094995721));
#787 = CARTESIAN_POINT('',(94.882151538477,0.,-120.2252083851));
#788 = CARTESIAN_POINT('',(94.647955808649,0.,-121.2385313101));
#789 = CARTESIAN_POINT('',(94.39167549934,0.,-122.2492319044));
#790 = CARTESIAN_POINT('',(94.11337040944,0.,-123.2570743373));
#791 = CARTESIAN_POINT('',(93.81310547697,0.,-124.2618234449));
#792 = CARTESIAN_POINT('',(93.490950763927,0.,-125.2632447852));
#793 = CARTESIAN_POINT('',(93.146981439935,0.,-126.2611046927));
#794 = CARTESIAN_POINT('',(92.781277764709,0.,-127.2551703326));
#795 = CARTESIAN_POINT('',(92.393925069325,0.,-128.2452097559));
#796 = CARTESIAN_POINT('',(91.98501373631,0.,-129.2309919527));
#797 = CARTESIAN_POINT('',(91.554639178551,0.,-130.2122869065));
#798 = CARTESIAN_POINT('',(91.102901817035,0.,-131.188865648));
#799 = CARTESIAN_POINT('',(90.629907057417,0.,-132.1605003083));
#800 = CARTESIAN_POINT('',(90.135765265422,0.,-133.1269641718));
#801 = CARTESIAN_POINT('',(89.620591741097,0.,-134.08803173));
#802 = CARTESIAN_POINT('',(89.084506691904,0.,-135.0434787331));
#803 = CARTESIAN_POINT('',(88.527635204676,0.,-135.9930822428));
#804 = CARTESIAN_POINT('',(87.950107216423,0.,-136.9366206845));
#805 = CARTESIAN_POINT('',(87.352057484022,0.,-137.8738738987));
#806 = CARTESIAN_POINT('',(86.733625552767,0.,-138.8046231923));
#807 = CARTESIAN_POINT('',(86.094955723811,0.,-139.72865139));
#808 = CARTESIAN_POINT('',(85.436197020495,0.,-140.6457428846));
#809 = CARTESIAN_POINT('',(84.757503153575,0.,-141.5556836876));
#810 = CARTESIAN_POINT('',(84.059032485359,0.,-142.4582614789));
#811 = CARTESIAN_POINT('',(83.340947992753,0.,-143.3532656565));
#812 = CARTESIAN_POINT('',(82.603417229234,0.,-144.2404873856));
#813 = CARTESIAN_POINT('',(81.846612285753,0.,-145.1197196472));
#814 = CARTESIAN_POINT('',(81.070709750581,0.,-145.9907572866));
#815 = CARTESIAN_POINT('',(80.275890668106,0.,-146.8533970611));
#816 = CARTESIAN_POINT('',(79.462340496589,0.,-147.7074376877));
#817 = CARTESIAN_POINT('',(78.630249064888,0.,-148.5526798896));
#818 = CARTESIAN_POINT('',(77.779810528167,0.,-149.3889264433));
#819 = CARTESIAN_POINT('',(76.911223322591,0.,-150.2159822239));
#820 = CARTESIAN_POINT('',(76.024690119027,0.,-151.0336542514));
#821 = CARTESIAN_POINT('',(75.120417775751,0.,-151.8417517351));
#822 = CARTESIAN_POINT('',(74.198617290183,0.,-152.6400861184));
#823 = CARTESIAN_POINT('',(73.259503749652,0.,-153.4284711229));
#824 = CARTESIAN_POINT('',(72.303296281212,0.,-154.2067227915));
#825 = CARTESIAN_POINT('',(71.330218000508,0.,-154.9746595317));
#826 = CARTESIAN_POINT('',(70.340495959721,0.,-155.7321021579));
#827 = CARTESIAN_POINT('',(69.334361094582,0.,-156.478873933));
#828 = CARTESIAN_POINT('',(68.312048170496,0.,-157.2148006098));
#829 = CARTESIAN_POINT('',(67.273795727752,0.,-157.9397104716));
#830 = CARTESIAN_POINT('',(66.219846025875,0.,-158.6534343724));
#831 = CARTESIAN_POINT('',(65.150444987091,0.,-159.3558057761));
#832 = CARTESIAN_POINT('',(64.065842138945,0.,-160.0466607957));
#833 = CARTESIAN_POINT('',(62.966290556082,0.,-160.7258382312));
#834 = CARTESIAN_POINT('',(61.852046801196,0.,-161.3931796076));
#835 = CARTESIAN_POINT('',(60.72337086516,0.,-162.0485292114));
#836 = CARTESIAN_POINT('',(59.580526106365,0.,-162.6917341274));
#837 = CARTESIAN_POINT('',(58.423779189271,0.,-163.3226442739));
#838 = CARTESIAN_POINT('',(57.253400022181,0.,-163.9411124383));
#839 = CARTESIAN_POINT('',(56.069661694266,0.,-164.546994311));
#840 = CARTESIAN_POINT('',(54.872840411842,0.,-165.1401485191));
#841 = CARTESIAN_POINT('',(53.663215433922,0.,-165.7204366597));
#842 = CARTESIAN_POINT('',(52.441069007056,0.,-166.2877233318));
#843 = CARTESIAN_POINT('',(51.206686299472,0.,-166.8418761682));
#844 = CARTESIAN_POINT('',(49.960355334539,0.,-167.3827658663));
#845 = CARTESIAN_POINT('',(48.702366923559,0.,-167.9102662181));
#846 = CARTESIAN_POINT('',(47.43301459791,0.,-168.42425414));
#847 = CARTESIAN_POINT('',(46.152594540561,0.,-168.924609701));
#848 = CARTESIAN_POINT('',(44.861405516954,0.,-169.4112161512));
#849 = CARTESIAN_POINT('',(43.559748805298,0.,-169.8839599489));
#850 = CARTESIAN_POINT('',(42.247928126271,0.,-170.3427307869));
#851 = CARTESIAN_POINT('',(40.926249572145,0.,-170.7874216184));
#852 = CARTESIAN_POINT('',(39.595021535371,0.,-171.2179286819));
#853 = CARTESIAN_POINT('',(38.254554636621,0.,-171.6341515256));
#854 = CARTESIAN_POINT('',(36.905161652301,0.,-172.0359930304));
#855 = CARTESIAN_POINT('',(35.547157441581,0.,-172.4233594332));
#856 = CARTESIAN_POINT('',(34.18085887292,0.,-172.7961603482));
#857 = CARTESIAN_POINT('',(32.806584750133,0.,-173.1543087884));
#858 = CARTESIAN_POINT('',(31.424655738,0.,-173.4977211855));
#859 = CARTESIAN_POINT('',(30.035394287449,0.,-173.8263174098));
#860 = CARTESIAN_POINT('',(28.639124560314,0.,-174.1400207886));
#861 = CARTESIAN_POINT('',(27.236172353698,0.,-174.4387581243));
#862 = CARTESIAN_POINT('',(25.826865023952,0.,-174.7224597113));
#863 = CARTESIAN_POINT('',(24.411531410294,0.,-174.9910593524));
#864 = CARTESIAN_POINT('',(22.990501758078,0.,-175.2444943743));
#865 = CARTESIAN_POINT('',(21.564107641738,0.,-175.4827056419));
#866 = CARTESIAN_POINT('',(20.132681887417,0.,-175.7056375725));
#867 = CARTESIAN_POINT('',(18.696558495313,0.,-175.9132381484));
#868 = CARTESIAN_POINT('',(17.256072561741,0.,-176.1054589294));
#869 = CARTESIAN_POINT('',(15.811560200943,0.,-176.2822550639));
#870 = CARTESIAN_POINT('',(14.363358466667,0.,-176.4435852994));
#871 = CARTESIAN_POINT('',(12.911805273514,0.,-176.589411992));
#872 = CARTESIAN_POINT('',(11.457239318095,0.,-176.7197011154));
#873 = ( GEOMETRIC_REPRESENTATION_CONTEXT(3) 
GLOBAL_UNCERTAINTY_ASSIGNED_CONTEXT((#877)) GLOBAL_UNIT_ASSIGNED_CONTEXT
((#874,#875,#876)) REPRESENTATION_CONTEXT('Context #1',
  '3D Context with UNIT and UNCERTAINTY') );
#874 = ( LENGTH_UNIT() NAMED_UNIT(*) SI_UNIT(.MILLI.,.METRE.) );
#875 = ( NAMED_UNIT(*) PLANE_ANGLE_UNIT() SI_UNIT($,.RADIAN.) );
#876 = ( NAMED_UNIT(*) SI_UNIT($,.STERADIAN.) SOLID_ANGLE_UNIT() );
#877 = UNCERTAINTY_MEASURE_WITH_UNIT(LENGTH_MEASURE(1.E-07),#874,
  'distance_accuracy_value','confusion accuracy');
#878 = CONTEXT_DEPENDENT_SHAPE_REPRESENTATION(#879,#881);
#879 = ( REPRESENTATION_RELATIONSHIP('','',#681,#10) 
REPRESENTATION_RELATIONSHIP_WITH_TRANSFORMATION(#880) 
SHAPE_REPRESENTATION_RELATIONSHIP() );
#880 = ITEM_DEFINED_TRANSFORMATION('','',#11,#27);
#881 = PRODUCT_DEFINITION_SHAPE('Placement','Placement of an item',#882
  );
#882 = NEXT_ASSEMBLY_USAGE_OCCURRENCE('4','','',#5,#676,$);
#883 = PRODUCT_RELATED_PRODUCT_CATEGORY('part',$,(#678));
ENDSEC;
END-ISO-10303-21;
